<mxfile host="app.diagrams.net" modified="2020-11-03T10:30:14.265Z" agent="5.0 (Macintosh; Intel Mac OS X 10_15_3) AppleWebKit/537.36 (KHTML, like Gecko) Chrome/86.0.4240.80 Safari/537.36" etag="yKVAGfNjVXEdWDNF6-ND" version="13.7.7" type="github">
  <diagram id="mmgU6nvxnUZtLD-TsOhv" name="Page-1">
    <mxGraphModel dx="815" dy="441" grid="1" gridSize="10" guides="1" tooltips="1" connect="1" arrows="1" fold="1" page="1" pageScale="1" pageWidth="850" pageHeight="1100" math="0" shadow="0">
      <root>
        <mxCell id="0" />
        <mxCell id="1" parent="0" />
        <mxCell id="DTgmVolfjVIGo2eN_TJI-3" style="edgeStyle=orthogonalEdgeStyle;rounded=0;orthogonalLoop=1;jettySize=auto;html=1;exitX=1;exitY=0.5;exitDx=0;exitDy=0;entryX=0.5;entryY=0;entryDx=0;entryDy=0;" edge="1" parent="1" source="DTgmVolfjVIGo2eN_TJI-1" target="DTgmVolfjVIGo2eN_TJI-2">
          <mxGeometry relative="1" as="geometry" />
        </mxCell>
        <mxCell id="DTgmVolfjVIGo2eN_TJI-6" style="edgeStyle=orthogonalEdgeStyle;rounded=0;orthogonalLoop=1;jettySize=auto;html=1;exitX=0;exitY=0.5;exitDx=0;exitDy=0;" edge="1" parent="1" source="DTgmVolfjVIGo2eN_TJI-1" target="DTgmVolfjVIGo2eN_TJI-5">
          <mxGeometry relative="1" as="geometry" />
        </mxCell>
        <mxCell id="DTgmVolfjVIGo2eN_TJI-1" value="processing" style="rounded=0;whiteSpace=wrap;html=1;fillColor=#d5e8d4;strokeColor=#82b366;" vertex="1" parent="1">
          <mxGeometry x="365" y="60" width="120" height="60" as="geometry" />
        </mxCell>
        <mxCell id="DTgmVolfjVIGo2eN_TJI-11" style="edgeStyle=orthogonalEdgeStyle;rounded=0;orthogonalLoop=1;jettySize=auto;html=1;exitX=0.5;exitY=1;exitDx=0;exitDy=0;entryX=0.5;entryY=0;entryDx=0;entryDy=0;" edge="1" parent="1" source="DTgmVolfjVIGo2eN_TJI-2" target="DTgmVolfjVIGo2eN_TJI-4">
          <mxGeometry relative="1" as="geometry" />
        </mxCell>
        <mxCell id="DTgmVolfjVIGo2eN_TJI-2" value="commit_finished" style="rounded=0;whiteSpace=wrap;html=1;fillColor=#e1d5e7;strokeColor=#9673a6;" vertex="1" parent="1">
          <mxGeometry x="540" y="160" width="120" height="60" as="geometry" />
        </mxCell>
        <mxCell id="DTgmVolfjVIGo2eN_TJI-12" style="edgeStyle=orthogonalEdgeStyle;rounded=0;orthogonalLoop=1;jettySize=auto;html=1;exitX=0.5;exitY=1;exitDx=0;exitDy=0;entryX=0.5;entryY=0;entryDx=0;entryDy=0;" edge="1" parent="1" source="DTgmVolfjVIGo2eN_TJI-4" target="DTgmVolfjVIGo2eN_TJI-7">
          <mxGeometry relative="1" as="geometry" />
        </mxCell>
        <mxCell id="DTgmVolfjVIGo2eN_TJI-4" value="stage_started_android" style="rounded=0;whiteSpace=wrap;html=1;fillColor=#ffe6cc;strokeColor=#d79b00;" vertex="1" parent="1">
          <mxGeometry x="535" y="250" width="130" height="60" as="geometry" />
        </mxCell>
        <mxCell id="DTgmVolfjVIGo2eN_TJI-16" style="edgeStyle=orthogonalEdgeStyle;rounded=0;orthogonalLoop=1;jettySize=auto;html=1;exitX=0.5;exitY=1;exitDx=0;exitDy=0;entryX=0;entryY=0.5;entryDx=0;entryDy=0;" edge="1" parent="1" source="DTgmVolfjVIGo2eN_TJI-5" target="DTgmVolfjVIGo2eN_TJI-15">
          <mxGeometry relative="1" as="geometry" />
        </mxCell>
        <mxCell id="DTgmVolfjVIGo2eN_TJI-5" value="origin_found" style="rounded=0;whiteSpace=wrap;html=1;fillColor=#e1d5e7;strokeColor=#9673a6;" vertex="1" parent="1">
          <mxGeometry x="190" y="160" width="120" height="60" as="geometry" />
        </mxCell>
        <mxCell id="DTgmVolfjVIGo2eN_TJI-13" style="edgeStyle=orthogonalEdgeStyle;rounded=0;orthogonalLoop=1;jettySize=auto;html=1;exitX=0.5;exitY=1;exitDx=0;exitDy=0;entryX=0.5;entryY=0;entryDx=0;entryDy=0;" edge="1" parent="1" source="DTgmVolfjVIGo2eN_TJI-7" target="DTgmVolfjVIGo2eN_TJI-8">
          <mxGeometry relative="1" as="geometry" />
        </mxCell>
        <mxCell id="DTgmVolfjVIGo2eN_TJI-7" value="stage_finished_android" style="rounded=0;whiteSpace=wrap;html=1;fillColor=#ffe6cc;strokeColor=#d79b00;" vertex="1" parent="1">
          <mxGeometry x="527.5" y="330" width="145" height="60" as="geometry" />
        </mxCell>
        <mxCell id="DTgmVolfjVIGo2eN_TJI-14" style="edgeStyle=orthogonalEdgeStyle;rounded=0;orthogonalLoop=1;jettySize=auto;html=1;exitX=0.5;exitY=1;exitDx=0;exitDy=0;entryX=0.5;entryY=0;entryDx=0;entryDy=0;" edge="1" parent="1" source="DTgmVolfjVIGo2eN_TJI-8" target="DTgmVolfjVIGo2eN_TJI-9">
          <mxGeometry relative="1" as="geometry" />
        </mxCell>
        <mxCell id="DTgmVolfjVIGo2eN_TJI-8" value="release_started_android" style="rounded=0;whiteSpace=wrap;html=1;fillColor=#ffe6cc;strokeColor=#d79b00;" vertex="1" parent="1">
          <mxGeometry x="527.5" y="410" width="145" height="60" as="geometry" />
        </mxCell>
        <mxCell id="DTgmVolfjVIGo2eN_TJI-17" style="edgeStyle=orthogonalEdgeStyle;rounded=0;orthogonalLoop=1;jettySize=auto;html=1;exitX=0.5;exitY=1;exitDx=0;exitDy=0;entryX=1;entryY=0.5;entryDx=0;entryDy=0;" edge="1" parent="1" source="DTgmVolfjVIGo2eN_TJI-9" target="DTgmVolfjVIGo2eN_TJI-15">
          <mxGeometry relative="1" as="geometry" />
        </mxCell>
        <mxCell id="DTgmVolfjVIGo2eN_TJI-9" value="release_finished_android" style="rounded=0;whiteSpace=wrap;html=1;fillColor=#ffe6cc;strokeColor=#d79b00;" vertex="1" parent="1">
          <mxGeometry x="527.5" y="500" width="145" height="60" as="geometry" />
        </mxCell>
        <mxCell id="DTgmVolfjVIGo2eN_TJI-19" style="edgeStyle=orthogonalEdgeStyle;rounded=0;orthogonalLoop=1;jettySize=auto;html=1;exitX=0.5;exitY=1;exitDx=0;exitDy=0;entryX=0.5;entryY=0;entryDx=0;entryDy=0;" edge="1" parent="1" source="DTgmVolfjVIGo2eN_TJI-15" target="DTgmVolfjVIGo2eN_TJI-18">
          <mxGeometry relative="1" as="geometry" />
        </mxCell>
        <mxCell id="DTgmVolfjVIGo2eN_TJI-15" value="wait_rpkg" style="rounded=0;whiteSpace=wrap;html=1;fillColor=#dae8fc;strokeColor=#6c8ebf;" vertex="1" parent="1">
          <mxGeometry x="340" y="590" width="145" height="60" as="geometry" />
        </mxCell>
        <mxCell id="DTgmVolfjVIGo2eN_TJI-24" style="edgeStyle=orthogonalEdgeStyle;rounded=0;orthogonalLoop=1;jettySize=auto;html=1;exitX=0.5;exitY=1;exitDx=0;exitDy=0;entryX=0.5;entryY=0;entryDx=0;entryDy=0;" edge="1" parent="1" source="DTgmVolfjVIGo2eN_TJI-18" target="DTgmVolfjVIGo2eN_TJI-22">
          <mxGeometry relative="1" as="geometry" />
        </mxCell>
        <mxCell id="DTgmVolfjVIGo2eN_TJI-18" value="found_rpkg" style="rounded=0;whiteSpace=wrap;html=1;fillColor=#dae8fc;strokeColor=#6c8ebf;" vertex="1" parent="1">
          <mxGeometry x="340" y="680" width="145" height="60" as="geometry" />
        </mxCell>
        <mxCell id="DTgmVolfjVIGo2eN_TJI-22" value="done" style="rounded=0;whiteSpace=wrap;html=1;fillColor=#d5e8d4;strokeColor=#82b366;" vertex="1" parent="1">
          <mxGeometry x="340" y="770" width="145" height="60" as="geometry" />
        </mxCell>
        <mxCell id="DTgmVolfjVIGo2eN_TJI-25" value="create 3 jobs:&lt;br&gt;1. create mobile origin (if needed)&lt;br&gt;2. create csr, license&lt;br&gt;3. commit origin (if needed)" style="text;html=1;align=center;verticalAlign=middle;resizable=0;points=[];autosize=1;" vertex="1" parent="1">
          <mxGeometry x="605" y="70" width="190" height="60" as="geometry" />
        </mxCell>
        <mxCell id="DTgmVolfjVIGo2eN_TJI-26" value="when rpkg found -&lt;br&gt;create zip" style="text;html=1;align=center;verticalAlign=middle;resizable=0;points=[];autosize=1;" vertex="1" parent="1">
          <mxGeometry x="495" y="695" width="110" height="30" as="geometry" />
        </mxCell>
      </root>
    </mxGraphModel>
  </diagram>
</mxfile>
